P2
2 3 255
0
255
128 
55
200
128
