P2
152 101 255
0
0
0
0
0
0
0
0
0
0
0
0
1
1
1
1
0
1
1
0
0
0
0
1
1
1
1
1
1
1
0
0
0
1
3
4
4
4
6
7
10
8
8
8
12
14
18
17
16
16
19
20
24
23
23
25
22
29
27
24
20
19
15
15
19
18
20
19
16
15
21
24
26
24
24
27
26
30
29
33
42
33
32
35
21
25
30
29
28
25
20
19
20
18
27
21
23
20
13
11
11
10
10
10
11
10
9
7
7
8
6
5
5
4
5
5
4
4
3
3
5
4
3
3
3
3
3
2
0
0
5
7
12
11
6
10
2
2
0
0
0
0
0
0
0
0
0
0
0
0
0
0
0
0
0
0
0
0
0
0
0
0
0
0
1
1
1
1
1
1
1
1
2
1
0
0
1
1
1
1
1
1
0
0
0
0
0
0
0
0
0
0
0
0
0
1
1
1
2
2
3
3
6
6
6
7
11
9
10
10
10
11
12
13
13
13
17
19
20
20
18
17
19
22
25
25
25
24
22
22
24
20
25
25
23
26
21
21
25
25
22
22
23
23
21
22
22
18
19
18
17
15
10
9
9
9
10
10
8
6
8
8
5
5
4
3
3
3
2
2
2
2
2
2
2
2
1
1
1
1
0
1
5
11
13
12
11
11
2
2
0
0
0
0
0
0
0
0
0
0
0
0
0
0
0
0
0
0
0
0
0
0
0
0
0
1
1
1
1
1
1
1
1
1
2
2
2
0
0
1
2
1
2
2
0
0
0
0
0
0
0
0
0
0
1
0
0
0
0
0
0
1
1
1
2
1
1
1
1
1
1
1
1
1
1
1
3
2
2
2
3
3
3
3
3
4
4
4
5
5
7
7
7
7
8
10
11
10
11
11
8
10
10
9
9
9
7
5
3
3
4
4
3
3
3
3
2
1
1
1
1
1
2
2
0
0
0
0
0
0
1
0
0
0
0
0
0
0
0
0
0
0
2
3
13
12
16
14
13
11
5
2
0
0
0
0
0
0
0
0
0
0
0
0
0
0
0
0
0
0
0
0
0
0
0
0
0
1
1
1
1
1
2
2
2
1
1
1
2
2
0
0
2
2
2
2
0
0
0
0
0
0
0
0
0
0
1
0
0
1
1
0
1
1
1
1
2
1
1
1
1
1
1
1
1
2
1
2
4
3
2
2
3
2
3
3
4
5
6
7
5
5
8
8
8
7
10
11
13
13
13
13
11
11
11
11
12
9
7
6
4
4
4
4
3
3
3
2
1
1
1
2
2
1
2
2
0
0
1
0
0
0
0
0
0
0
0
0
0
0
0
1
1
2
3
5
16
15
18
15
11
10
6
2
0
0
0
0
0
0
0
0
0
0
0
0
0
0
0
0
0
0
1
0
0
0
0
0
0
1
2
1
1
2
2
2
2
2
2
1
2
3
3
1
0
1
3
3
0
0
1
1
0
0
0
0
0
0
0
0
0
0
1
1
1
1
2
2
2
2
2
2
1
1
1
1
2
2
2
2
3
3
3
2
3
3
4
4
5
6
7
7
9
9
12
12
11
12
12
12
14
14
14
13
12
12
12
11
10
7
7
7
5
4
4
4
4
4
2
1
2
1
1
1
0
0
1
1
0
0
1
1
0
0
0
0
0
0
0
0
0
0
0
1
1
0
1
8
15
11
8
9
5
6
3
2
0
0
0
0
0
0
0
0
0
0
0
1
0
0
0
0
0
0
1
1
0
0
0
0
0
1
1
1
2
2
2
2
2
2
2
2
2
3
3
3
0
0
3
3
6
11
15
11
10
10
9
8
7
6
7
6
6
6
6
7
6
5
4
3
4
4
4
3
2
2
2
2
4
3
3
3
4
5
4
4
4
3
4
4
5
5
9
8
9
11
14
15
14
13
14
14
17
16
15
15
13
14
12
11
9
7
6
7
5
4
3
4
4
4
2
1
2
1
1
1
0
0
1
1
0
0
1
1
0
0
0
0
0
0
0
0
0
0
0
1
1
0
3
8
13
10
9
6
4
5
4
3
0
0
0
0
0
0
0
0
0
0
0
1
0
0
0
0
0
0
1
1
0
0
0
0
0
1
2
2
2
2
2
3
3
3
2
2
2
3
4
4
4
3
1
2
6
10
18
17
13
13
13
12
12
13
12
12
14
15
15
16
20
20
20
20
21
22
25
27
30
31
32
32
38
39
39
40
41
43
44
45
45
45
49
47
55
53
47
49
40
37
57
68
64
59
64
62
60
60
61
61
59
60
48
43
42
39
38
33
29
28
27
24
25
23
22
24
26
25
24
23
23
25
21
19
18
13
17
18
15
15
14
16
15
13
9
8
10
10
9
9
8
5
5
13
12
10
9
9
5
6
6
4
0
0
0
0
0
0
0
0
0
0
0
1
0
0
0
0
0
0
1
1
0
0
0
0
0
2
2
2
2
2
3
3
3
3
3
3
3
3
4
4
5
5
2
1
6
9
10
14
14
14
13
11
10
7
6
7
7
7
7
8
10
11
11
12
14
15
18
20
22
24
25
23
28
29
33
33
39
42
49
51
58
60
70
66
88
88
85
87
70
72
157
180
176
172
176
174
172
170
170
170
170
168
75
56
62
80
77
65
65
69
61
55
62
58
46
46
49
51
43
37
38
39
31
29
31
25
28
30
26
25
21
23
23
21
17
16
16
16
15
14
10
10
9
15
18
14
9
6
4
7
6
5
0
0
0
0
0
0
0
0
0
0
1
1
0
0
0
0
0
1
2
1
0
0
1
0
0
1
2
2
2
3
3
3
3
3
3
4
4
4
4
5
5
6
7
6
4
5
11
14
16
17
17
14
13
16
12
10
7
8
8
9
11
12
12
12
12
13
18
22
21
23
26
24
22
24
28
30
31
32
36
42
49
53
56
65
73
77
81
86
83
81
157
229
251
251
251
251
251
251
251
251
251
251
141
82
54
65
88
79
52
46
46
44
42
40
36
35
26
25
25
25
22
19
13
12
16
16
16
16
15
10
10
11
10
9
10
10
7
6
6
5
8
15
16
18
17
15
9
8
5
7
2
3
0
0
0
0
0
0
0
0
0
0
1
1
0
0
0
0
0
1
2
1
0
0
0
0
0
0
2
2
2
2
3
3
4
3
4
4
4
4
5
5
5
6
8
9
3
2
10
15
18
18
18
16
15
16
17
17
9
7
9
9
9
10
12
12
12
12
17
19
21
23
27
26
21
24
27
29
30
30
33
38
43
46
49
52
65
67
71
78
84
80
114
194
251
251
251
251
251
251
251
251
251
251
193
128
80
72
59
51
44
39
44
41
40
37
34
33
24
25
25
24
21
18
13
12
16
16
15
15
14
9
10
11
10
10
9
9
6
7
7
6
12
19
18
19
18
15
7
8
7
7
2
3
0
0
0
0
0
0
0
0
0
0
1
1
0
0
0
0
0
1
2
2
0
0
1
0
1
3
3
2
3
3
3
3
4
4
4
4
6
6
7
7
7
8
9
10
9
6
3
6
17
19
24
21
21
18
17
17
18
12
10
10
10
9
11
12
13
14
16
16
18
19
21
22
23
21
22
23
25
26
28
29
37
40
44
45
47
51
64
75
93
93
85
130
251
251
251
251
251
251
251
251
251
251
172
65
29
34
39
40
35
35
37
35
34
33
32
30
20
23
22
22
21
19
14
13
15
14
16
16
14
10
10
11
10
10
11
10
8
9
9
7
22
24
24
23
17
18
8
10
10
5
1
4
0
0
0
0
0
0
0
0
0
0
0
0
0
0
1
0
0
1
2
2
0
0
1
0
1
3
3
2
3
3
3
3
4
4
4
4
6
7
8
8
7
8
11
11
7
9
6
3
15
19
24
24
25
22
18
18
20
13
11
9
8
8
11
11
13
13
17
16
16
17
19
20
22
20
19
20
23
24
29
30
34
38
42
43
48
48
64
75
98
101
85
92
250
251
251
251
251
251
251
251
251
251
210
104
31
35
41
40
38
35
33
31
31
31
29
28
19
22
22
23
21
19
15
13
15
15
16
15
12
9
9
9
11
10
12
10
10
11
9
7
27
27
29
27
18
16
13
14
9
3
1
3
0
0
0
0
0
0
0
0
0
0
0
0
0
0
1
0
0
1
2
1
0
0
2
0
2
4
3
3
4
4
4
4
5
5
5
5
6
7
10
10
12
12
15
14
10
11
14
15
7
8
25
25
27
27
25
24
22
14
5
5
4
4
3
4
6
8
13
11
13
18
20
25
29
27
15
15
18
18
21
21
23
27
34
38
38
39
51
69
95
100
92
86
189
250
251
251
251
251
251
251
251
251
251
147
28
31
39
39
35
30
27
36
30
28
53
33
30
23
21
21
19
17
12
11
15
15
15
14
9
6
8
8
9
9
9
8
10
9
8
13
30
23
25
31
21
11
21
15
5
1
3
3
0
0
0
0
0
0
0
0
0
0
1
1
0
0
1
0
1
2
2
2
0
0
2
0
2
4
4
4
4
4
5
5
5
5
5
5
7
7
11
11
13
14
18
16
11
11
13
18
16
8
18
24
26
27
25
25
22
15
7
6
7
8
8
8
10
11
14
13
18
20
23
27
38
34
25
19
21
21
22
23
23
25
31
35
33
36
45
58
82
103
99
87
152
234
251
251
251
251
251
251
251
251
251
169
29
38
66
76
64
64
31
39
34
32
52
33
38
36
46
39
47
45
15
19
33
34
30
27
13
5
7
8
8
7
7
7
7
7
7
18
29
26
27
25
17
10
20
15
2
1
3
3
0
0
0
0
0
0
0
0
0
0
1
1
0
0
1
1
2
3
3
2
0
0
1
0
2
5
4
4
4
5
5
6
6
6
5
6
9
10
13
15
15
17
17
16
10
9
14
17
27
27
12
13
24
25
28
27
24
17
13
11
18
21
24
25
27
26
29
29
29
32
40
39
46
46
51
45
49
47
50
54
55
59
71
75
71
72
99
108
122
127
120
124
160
214
251
251
251
251
251
251
252
251
250
227
90
67
66
75
68
60
56
58
64
51
47
57
43
42
37
36
30
38
36
37
28
28
30
30
26
25
25
26
21
15
12
13
12
17
16
27
19
19
27
24
11
18
15
10
3
5
4
5
0
0
0
0
0
0
0
0
0
0
1
1
1
0
1
1
2
3
3
2
0
0
1
0
2
5
4
4
5
6
6
6
6
6
4
5
10
12
13
16
17
18
17
17
12
11
17
21
31
30
23
13
18
23
30
30
25
18
13
13
20
23
27
28
28
27
32
32
34
38
47
49
50
47
56
52
55
54
56
63
63
69
75
77
84
85
102
115
133
134
139
153
200
215
216
216
211
210
213
216
211
214
197
182
133
116
86
100
92
81
68
68
78
68
62
76
59
59
55
50
56
66
54
56
43
42
42
41
39
34
25
30
19
19
19
19
17
24
28
30
15
17
24
23
16
20
13
5
5
6
6
8
1
0
0
0
0
0
0
0
0
0
1
1
1
0
1
1
3
3
3
3
0
0
1
0
2
5
4
4
5
6
8
8
8
5
0
0
12
13
14
16
18
20
18
18
16
14
18
22
32
32
30
27
10
11
31
32
28
22
12
9
16
17
26
25
20
24
27
29
34
34
40
38
38
44
51
53
63
64
66
70
82
85
98
106
112
119
137
148
169
174
192
198
224
234
231
237
239
238
237
233
233
228
221
206
158
154
153
154
116
97
82
78
59
62
59
73
59
54
50
51
65
75
57
53
44
44
37
36
32
31
28
27
25
23
20
16
16
22
33
30
30
30
22
19
21
16
11
2
5
7
8
9
1
0
0
0
0
0
0
0
0
0
1
1
1
0
1
2
3
3
3
3
0
0
2
0
2
6
4
4
5
6
8
8
9
6
0
0
13
13
15
16
18
19
19
19
18
19
20
22
31
33
31
33
21
11
20
27
27
23
16
12
14
15
29
27
23
27
32
33
37
38
41
41
44
53
57
59
77
77
78
83
88
95
113
125
124
131
150
156
180
189
208
213
233
241
245
248
250
250
249
248
247
244
245
237
203
193
184
178
141
118
107
101
77
87
74
87
69
63
50
52
72
73
58
53
50
44
37
35
28
28
20
19
24
25
19
15
13
17
37
32
29
26
21
23
18
13
7
3
8
11
8
8
2
0
0
0
0
0
0
0
0
0
1
1
1
0
2
2
4
4
3
3
0
0
2
0
3
7
4
5
7
8
9
10
10
7
0
1
14
14
16
17
21
22
23
23
21
22
22
26
36
36
35
35
34
31
16
11
25
26
21
20
17
12
25
27
26
26
33
35
41
43
48
48
54
58
76
74
83
90
102
111
122
130
141
150
152
165
181
189
203
208
220
227
240
248
251
251
251
251
251
251
251
251
249
245
223
221
221
214
176
153
136
133
101
108
105
106
79
81
67
62
76
84
63
60
52
61
48
39
32
30
26
25
22
23
28
23
17
20
38
27
24
18
10
23
12
11
5
8
13
11
11
9
3
0
0
0
0
0
0
0
0
0
1
2
2
1
2
2
4
4
4
3
0
0
2
0
4
8
5
6
6
8
9
11
10
7
0
1
13
14
17
18
18
19
23
26
22
23
25
26
38
40
36
37
35
33
35
19
18
23
24
21
17
9
20
25
27
28
34
35
41
48
51
51
58
64
75
73
89
101
115
122
130
136
148
160
161
173
188
196
208
212
225
231
241
246
250
251
251
251
251
251
251
251
251
250
235
228
225
223
199
180
152
149
123
129
122
122
95
92
74
69
84
85
73
70
58
60
57
44
33
29
29
29
27
25
30
25
18
27
35
26
20
14
10
21
12
9
8
9
14
11
14
11
4
0
0
0
0
0
0
0
0
0
1
2
2
1
2
2
3
3
4
4
0
0
2
0
4
8
6
7
9
10
12
12
10
8
0
2
17
17
18
19
22
24
24
25
25
25
30
31
41
42
44
41
39
39
43
40
20
10
31
26
11
10
10
8
10
13
15
13
16
17
43
42
19
20
18
21
24
24
30
35
27
28
29
29
31
35
67
117
175
180
181
183
187
185
194
198
210
212
220
220
218
219
223
224
208
201
119
121
120
114
99
97
81
82
87
87
75
69
61
62
76
76
59
59
53
52
54
40
36
34
33
30
29
32
34
30
25
31
19
15
10
5
16
23
11
7
12
8
21
13
18
13
4
0
0
0
0
0
0
0
0
0
1
2
2
1
3
3
3
4
5
4
0
0
2
0
4
9
7
7
10
11
13
14
12
8
0
2
19
18
19
20
23
25
24
26
27
27
30
33
42
42
45
43
41
40
47
39
35
20
33
32
13
11
10
10
9
10
14
12
12
14
52
55
20
17
20
23
28
27
33
39
34
36
34
34
35
39
54
108
185
195
210
216
229
232
237
238
240
241
243
243
244
244
242
241
230
192
41
40
42
40
35
35
34
34
38
39
38
35
38
45
45
44
31
31
32
33
24
21
22
23
24
21
18
17
19
19
16
20
22
18
15
10
18
27
8
6
13
11
24
15
18
12
5
0
0
0
0
0
0
0
0
0
1
2
2
1
3
3
4
4
5
4
0
0
2
0
5
11
7
8
11
12
14
14
17
11
0
4
23
19
21
19
23
26
27
27
28
30
34
37
43
44
47
45
41
43
56
48
50
40
41
45
23
16
12
11
11
10
11
13
7
8
20
23
27
29
24
32
33
33
41
43
45
42
46
47
50
56
64
75
91
96
105
104
102
100
98
96
92
93
87
80
57
46
37
37
35
35
32
34
33
32
29
26
26
25
22
21
21
21
21
21
21
20
14
13
13
14
12
11
10
10
11
11
8
8
10
10
10
20
25
18
16
16
19
27
11
13
19
17
27
25
15
12
6
0
0
0
0
0
0
0
0
0
1
2
3
1
3
4
4
4
5
5
0
0
2
0
6
13
7
9
11
12
14
15
18
13
0
5
24
21
21
20
25
27
28
27
28
32
35
39
44
45
51
50
41
44
53
45
52
40
41
47
35
19
13
13
12
10
10
9
3
4
13
15
10
13
17
18
21
21
25
27
29
28
30
30
35
43
52
62
83
89
102
101
102
103
102
101
96
98
88
79
59
46
38
38
37
36
32
34
35
34
30
27
27
25
23
22
21
20
19
19
18
17
14
14
14
14
13
12
12
12
12
12
9
9
10
9
12
23
26
17
16
16
18
22
7
10
24
19
30
28
10
12
6
0
0
0
0
0
0
0
0
0
1
2
3
1
4
4
4
5
6
6
0
0
2
0
7
14
10
11
12
12
13
15
20
15
0
6
22
21
21
20
26
30
28
28
29
33
37
40
48
51
53
51
42
49
56
48
54
46
40
38
32
35
20
15
13
11
9
5
2
2
12
13
6
7
7
8
8
7
9
9
14
15
16
15
19
27
41
49
67
74
88
88
86
86
86
85
87
87
70
59
39
27
18
18
15
14
11
11
10
10
8
8
8
8
7
6
5
5
5
5
4
4
5
5
6
7
4
4
5
5
4
4
3
2
2
6
17
29
31
19
17
17
15
21
0
7
27
22
32
28
14
12
6
0
0
0
0
0
0
0
0
0
2
3
3
3
4
4
5
5
6
6
0
0
3
0
7
13
11
11
12
13
15
17
20
14
0
6
23
22
21
21
25
28
29
30
30
33
38
41
47
52
55
51
42
49
58
50
58
49
44
41
30
33
29
17
13
12
10
5
1
1
15
15
4
5
6
7
8
8
8
8
13
14
15
14
21
29
43
51
69
77
89
89
87
87
88
88
90
90
72
61
40
28
22
22
18
18
15
15
13
14
12
11
11
11
10
10
9
8
6
6
5
5
6
6
5
5
4
3
3
4
3
3
2
2
1
6
19
29
32
21
19
19
18
25
0
8
27
23
35
29
16
12
7
0
0
0
0
0
0
0
0
0
2
3
4
3
3
4
5
6
8
7
0
1
3
0
8
13
10
10
13
15
16
17
23
15
0
8
23
23
26
29
27
29
33
32
33
34
40
43
47
45
49
52
48
47
54
49
56
50
45
42
35
29
30
30
19
15
13
8
3
3
12
13
5
5
7
7
8
9
10
9
11
13
14
15
23
29
42
49
65
73
85
83
83
83
83
82
83
83
65
54
32
21
15
14
12
12
11
10
8
8
6
6
6
6
8
8
6
5
5
5
4
4
3
3
3
3
3
3
3
3
3
3
2
2
5
11
26
37
33
24
22
21
12
19
2
13
22
19
34
30
18
11
11
1
0
0
0
0
0
0
0
0
2
3
4
3
4
4
5
5
8
6
0
1
3
0
8
13
10
10
13
14
15
18
23
16
0
8
24
24
28
32
28
31
35
36
36
35
41
44
48
46
51
52
50
48
54
49
59
51
44
44
37
32
24
26
25
18
15
11
3
3
12
12
5
6
7
7
8
8
11
10
12
13
14
16
23
30
43
49
65
73
83
82
82
82
81
81
82
81
63
51
31
19
15
14
13
12
10
10
8
8
7
7
6
7
7
7
6
5
5
5
4
4
3
3
3
3
2
2
3
3
3
3
2
2
6
15
35
39
35
26
22
22
11
18
3
15
21
20
34
29
20
9
13
2
0
0
0
0
0
0
0
0
2
3
4
4
4
4
5
5
6
6
0
2
3
0
9
13
9
11
15
15
15
19
24
17
0
10
25
24
28
31
33
33
39
45
36
36
40
45
53
51
54
56
53
52
61
53
59
59
47
47
39
35
27
20
22
25
24
18
19
18
21
22
18
21
23
20
23
22
24
24
23
22
23
25
33
40
55
67
83
90
105
103
98
97
95
94
93
92
70
57
36
23
17
15
13
12
12
12
9
9
7
7
7
7
7
9
7
7
5
4
4
4
4
4
3
3
3
3
3
3
3
3
2
2
9
28
35
27
37
27
24
20
16
21
1
14
21
24
39
26
22
17
15
4
0
0
0
0
0
0
0
1
2
3
5
5
3
4
5
6
6
5
0
2
3
0
10
14
10
11
15
17
16
19
24
17
0
10
27
25
30
32
31
33
36
43
35
33
38
40
52
53
59
59
53
51
65
60
64
60
42
42
35
34
24
19
19
20
25
20
14
13
21
22
17
20
24
21
24
26
25
28
29
30
31
34
43
50
66
80
100
106
120
119
115
114
112
113
113
110
89
75
53
43
41
41
41
40
42
42
40
40
33
31
29
27
23
23
18
15
13
10
8
8
6
6
5
4
4
4
3
3
3
3
3
2
9
27
25
29
40
27
24
21
20
26
1
13
20
27
39
25
20
17
16
4
0
0
0
0
0
0
0
1
2
3
5
5
3
4
5
5
5
5
0
3
3
0
13
16
11
11
15
17
19
20
25
15
0
10
27
25
29
30
32
35
37
40
40
40
43
39
43
57
70
68
18
7
22
35
35
32
25
27
25
22
21
18
15
16
17
20
21
17
27
23
18
18
14
9
11
14
18
17
18
20
23
27
41
48
59
67
89
96
96
95
100
102
101
101
110
107
93
77
56
47
40
38
33
34
35
32
33
38
33
33
30
30
29
28
23
20
21
21
19
19
21
21
19
18
17
18
19
18
16
16
16
15
22
25
28
27
47
30
24
19
15
26
2
12
25
28
41
22
19
20
19
7
0
0
0
0
0
0
0
0
2
3
6
6
4
4
5
5
4
4
0
3
3
0
13
15
12
12
15
18
20
22
24
15
0
11
27
25
29
30
33
36
38
40
39
38
45
45
45
58
70
76
17
8
42
69
66
62
46
46
42
38
35
30
23
18
15
12
23
21
26
23
19
19
12
7
9
13
17
18
18
19
20
24
35
41
55
63
81
89
92
90
92
94
93
93
100
97
79
65
43
35
29
28
25
26
28
24
26
31
26
25
22
22
23
22
17
16
16
15
14
14
13
13
12
12
11
11
11
10
8
9
9
11
22
23
35
28
47
31
25
21
19
26
2
12
26
30
41
22
23
22
20
8
0
0
0
0
0
0
0
0
2
3
6
6
4
4
4
4
6
5
0
5
3
0
12
15
14
14
14
17
22
26
21
10
0
11
26
27
31
33
33
37
39
41
37
38
44
47
56
64
65
75
24
9
35
63
67
67
50
49
45
41
36
34
29
22
16
12
13
15
24
20
19
19
12
6
7
7
9
10
12
13
15
21
32
38
51
58
75
80
80
80
81
82
84
86
86
81
60
49
31
30
36
37
36
31
22
23
28
26
26
27
27
27
24
23
21
20
19
18
18
17
16
14
15
16
13
12
12
11
10
11
9
13
22
27
26
15
43
33
27
24
25
32
1
11
30
34
38
25
24
23
20
11
0
0
0
0
0
0
0
0
2
3
7
7
4
5
4
4
5
4
0
5
3
0
9
13
15
14
16
17
22
26
22
6
0
12
27
27
30
31
34
36
38
41
39
40
42
44
58
65
64
71
20
10
34
59
73
72
52
50
50
43
36
34
31
25
18
13
14
12
24
23
20
19
12
8
9
8
9
10
12
12
15
21
32
38
50
57
74
78
78
78
75
75
76
77
74
67
49
40
23
18
18
18
18
17
16
16
14
14
12
12
11
10
9
8
7
6
5
4
4
3
3
3
3
3
3
3
4
4
4
5
10
16
25
26
23
16
45
35
31
27
33
38
0
7
30
34
38
26
25
23
19
12
0
0
0
0
0
0
0
0
2
3
7
7
4
4
4
3
3
1
0
4
3
0
12
15
17
16
19
20
25
29
34
17
0
15
30
30
29
30
36
38
39
41
39
41
40
42
53
59
68
75
26
11
46
67
72
71
50
52
51
46
38
37
35
30
22
17
16
12
13
16
27
25
17
17
21
20
17
17
17
18
23
29
40
46
56
62
79
82
79
78
76
75
76
77
72
65
47
37
23
20
22
23
23
23
23
22
19
17
14
14
12
10
9
8
8
8
7
7
5
5
6
5
5
5
6
6
4
4
5
5
14
27
36
31
17
13
46
36
34
34
31
32
2
5
25
30
39
28
26
25
17
11
0
0
0
0
0
0
0
0
2
3
8
8
4
5
4
3
2
1
0
5
3
0
16
18
17
16
19
22
28
31
35
19
0
15
31
31
32
32
36
38
39
41
41
43
41
44
55
60
67
75
29
11
47
69
72
73
49
51
52
47
41
39
32
30
26
21
18
14
13
14
23
24
21
22
32
34
28
27
19
22
30
35
44
50
61
69
86
88
85
87
88
87
87
89
84
77
62
58
50
52
111
121
125
122
112
107
101
63
30
29
26
24
24
23
21
21
18
17
17
16
16
16
12
10
11
11
10
10
9
8
12
23
29
24
14
13
45
39
35
37
25
28
4
7
22
27
40
30
25
25
19
13
0
0
0
0
0
0
0
0
2
3
8
9
4
4
4
3
1
0
0
6
2
1
19
17
17
16
19
21
32
36
30
16
0
16
31
32
33
31
36
40
40
41
44
42
39
43
57
59
60
75
28
15
57
79
73
78
50
56
58
56
50
44
13
20
26
26
20
16
16
16
18
18
26
26
36
40
37
35
18
26
38
48
67
72
77
88
99
102
106
98
100
99
104
108
111
105
92
79
86
96
186
252
252
252
252
252
251
162
61
68
51
56
48
42
42
38
51
57
57
42
39
41
33
29
33
32
30
19
16
18
11
6
10
16
14
15
40
40
35
34
21
26
9
9
25
29
41
35
28
30
30
20
0
0
0
0
0
0
0
0
2
3
8
11
4
4
5
4
1
0
0
5
2
1
19
17
16
16
18
20
30
34
33
16
0
16
31
32
33
32
37
40
41
43
49
42
40
43
57
59
57
68
21
16
79
81
74
76
49
57
61
61
55
48
15
21
20
22
23
20
17
17
19
19
22
27
37
42
40
35
19
28
36
42
56
64
74
84
95
97
102
102
106
108
117
120
123
121
117
105
108
123
199
240
242
242
240
239
231
185
98
97
89
95
82
72
76
68
87
87
87
70
62
60
50
45
47
45
41
29
29
28
11
8
10
15
16
17
39
43
37
34
22
27
8
9
24
27
40
37
33
35
45
32
0
0
0
0
0
0
0
0
2
4
10
12
5
6
5
5
1
0
5
11
7
7
20
19
17
17
20
23
31
40
33
18
0
15
30
33
35
33
43
38
39
56
44
43
45
48
57
58
57
62
16
18
86
77
77
77
60
63
65
68
62
52
19
31
19
16
17
23
26
26
23
21
18
18
37
50
44
42
23
23
37
41
54
61
76
87
101
103
107
109
115
123
130
132
134
132
135
156
188
203
239
250
251
252
252
251
249
246
221
198
142
134
111
97
103
93
86
88
69
64
70
57
42
41
32
31
36
28
38
40
12
7
7
15
12
15
38
45
38
37
21
26
7
7
25
27
44
47
48
48
54
48
0
0
0
0
0
0
0
0
2
4
13
13
5
6
5
5
0
0
4
8
14
15
20
19
17
18
21
24
32
44
33
18
0
15
32
34
38
36
43
38
38
55
43
43
46
50
60
62
56
59
16
20
85
80
76
78
62
67
71
69
64
56
20
34
22
19
17
19
25
29
27
24
20
19
27
44
52
45
22
21
36
43
59
65
80
92
105
108
112
114
122
127
140
142
149
149
153
161
199
217
241
250
252
252
252
252
250
248
234
221
175
161
137
115
113
105
93
95
79
68
70
56
40
41
35
31
40
31
38
35
17
8
7
16
6
14
40
48
38
36
20
27
9
6
29
30
48
53
51
38
54
52
0
0
0
0
0
0
0
0
2
4
14
12
6
7
6
5
0
0
0
0
0
2
7
8
10
15
26
28
32
35
34
15
1
18
34
34
34
37
43
38
33
61
48
53
70
58
60
61
58
58
12
19
76
78
80
79
60
64
87
81
66
55
23
35
28
29
28
22
19
21
30
30
25
22
20
26
46
46
30
17
19
23
32
36
47
54
59
59
71
70
67
67
76
77
78
80
121
177
209
220
237
244
247
247
247
246
244
241
179
128
122
114
106
100
98
96
80
83
71
64
68
63
48
42
39
38
38
33
38
34
18
11
8
18
3
12
45
55
35
34
27
28
13
3
32
37
60
54
22
16
29
35
0
0
0
0
0
0
0
0
2
9
12
10
6
7
7
5
0
0
0
0
0
0
0
0
1
7
22
26
31
32
33
15
1
19
33
34
33
34
39
37
32
54
48
50
58
57
60
60
55
54
12
21
71
79
79
75
62
67
83
82
71
56
22
33
30
31
35
29
19
23
28
30
27
22
21
26
43
44
36
25
19
23
29
36
46
52
56
57
57
57
56
55
56
56
48
42
70
112
132
143
158
164
173
181
184
183
184
188
101
25
27
27
27
27
28
30
31
35
32
30
32
32
33
25
24
24
19
18
18
21
19
12
8
16
4
14
49
56
36
37
35
33
15
3
37
50
54
40
16
13
25
35
0
0
0
0
0
0
0
0
2
15
12
11
6
5
5
4
0
0
1
1
0
0
4
6
15
18
19
23
28
27
30
13
2
17
30
34
36
35
40
40
32
38
43
43
48
48
62
65
50
48
8
24
71
75
79
72
63
64
74
76
78
65
25
41
38
39
31
33
29
34
7
23
31
26
27
35
42
36
36
34
26
25
30
36
46
51
55
57
55
54
56
56
57
57
46
42
29
23
35
50
59
58
57
57
58
52
22
18
16
14
11
9
8
7
6
5
5
5
5
4
4
4
4
3
3
3
3
3
5
8
16
13
9
16
9
15
60
66
36
38
47
42
18
2
55
68
32
22
15
13
23
39
1
0
0
0
0
0
0
0
1
5
12
19
6
4
5
4
0
0
1
1
0
0
5
8
16
25
27
30
31
32
30
12
3
15
27
30
36
34
42
43
34
35
43
43
43
45
65
69
48
46
6
25
76
77
79
72
64
66
72
77
80
67
22
41
43
43
32
35
31
39
6
26
34
27
30
42
43
33
33
33
31
28
31
37
47
51
54
56
54
54
56
57
58
57
47
42
28
22
37
53
61
61
59
58
60
53
20
17
15
14
10
9
8
7
6
5
5
4
4
4
3
3
3
3
2
2
3
3
5
7
14
14
10
15
10
16
64
71
35
37
46
42
17
1
67
71
24
23
16
11
18
39
3
0
0
0
0
0
0
0
1
2
15
29
5
4
4
4
0
0
0
0
0
0
5
9
17
27
29
31
32
33
33
13
4
5
6
12
19
22
30
49
58
61
51
53
44
46
78
114
57
48
8
27
69
76
80
74
66
65
70
71
72
62
26
43
49
50
44
45
32
39
8
28
40
38
48
55
56
41
35
31
34
33
33
36
46
48
50
49
51
51
50
51
52
51
41
35
23
18
36
52
60
60
59
60
60
51
17
15
13
11
10
9
7
6
5
5
4
3
3
3
3
3
2
2
2
2
2
2
5
8
11
16
16
15
12
17
53
59
37
36
33
33
19
1
31
19
8
7
2
0
13
40
7
0
0
0
0
0
0
0
1
2
20
36
5
4
4
3
0
0
0
0
0
0
5
9
18
27
29
31
34
36
34
12
4
6
3
3
7
12
26
29
58
66
52
58
49
50
89
114
60
51
7
29
67
74
77
74
65
64
72
75
76
63
28
45
57
55
51
51
39
37
9
27
42
41
55
62
62
47
38
33
36
35
35
37
46
48
48
47
50
49
49
50
52
50
40
34
21
18
37
52
59
59
59
59
58
48
14
12
9
8
6
5
4
4
3
3
3
2
2
2
2
1
1
1
1
1
1
2
2
2
12
18
15
14
12
16
65
72
42
39
32
32
20
2
5
2
0
0
0
0
9
36
9
0
0
0
0
0
0
0
1
2
20
28
5
3
3
4
0
0
4
4
0
0
7
12
15
23
26
28
39
40
32
10
6
8
3
3
2
2
2
2
8
10
34
55
64
63
77
74
58
47
6
36
76
75
70
67
70
70
65
66
75
62
27
43
65
60
56
57
48
45
8
26
46
45
65
71
22
36
46
44
42
39
36
40
47
49
49
47
46
46
47
48
50
48
37
31
19
17
38
53
58
58
57
57
57
45
11
10
8
7
6
5
4
4
3
3
3
2
2
2
1
1
1
1
1
1
0
2
4
4
17
23
13
14
12
14
70
76
45
40
24
27
27
6
2
1
0
0
0
0
6
38
13
0
0
0
0
0
0
0
0
2
13
14
7
4
4
4
0
0
0
3
0
0
8
13
16
23
27
28
39
41
30
10
6
8
3
3
2
2
2
2
2
2
12
21
44
45
53
63
58
48
6
34
75
75
72
68
73
74
67
65
79
57
24
41
63
61
59
61
49
49
8
26
47
45
66
71
26
38
38
43
44
41
38
41
48
49
50
48
44
45
46
47
48
45
34
29
16
16
38
52
57
56
55
56
56
43
10
9
7
7
5
5
4
4
3
3
3
2
2
2
2
1
1
1
1
1
0
2
5
5
19
25
14
14
14
13
68
72
46
42
29
29
27
7
4
1
0
0
0
0
7
40
12
0
0
0
0
0
0
0
0
1
13
14
3
8
11
7
0
0
5
9
2
1
6
9
16
23
29
29
34
35
25
7
6
7
3
3
3
3
2
2
1
1
2
2
2
9
16
24
69
51
4
31
64
58
62
65
69
72
67
67
83
61
22
49
66
56
60
63
55
48
12
28
49
47
72
77
51
70
44
39
35
39
41
42
50
49
47
49
45
44
45
45
46
42
31
25
13
15
38
49
51
51
50
51
49
35
7
6
5
4
4
3
3
2
2
2
1
1
1
1
1
1
0
0
0
0
0
1
9
10
22
26
15
15
15
17
62
65
43
38
33
36
31
11
9
1
0
0
0
0
6
41
18
2
0
0
0
0
0
0
0
2
11
14
7
7
13
8
0
0
1
4
2
2
4
7
17
22
29
29
34
36
22
5
6
7
3
3
3
3
2
2
1
1
2
2
1
1
0
3
8
10
2
36
70
59
56
64
66
72
66
68
81
64
20
48
64
57
64
61
59
53
14
30
50
49
75
83
52
65
55
52
33
36
42
43
50
48
46
57
47
46
46
45
44
40
29
23
12
14
38
48
49
50
50
50
48
33
7
6
5
4
4
3
3
2
2
2
1
1
1
1
1
1
0
0
0
0
0
1
13
13
23
26
17
18
15
19
55
61
41
37
34
37
35
13
12
1
0
0
0
0
5
32
19
4
0
0
0
0
0
0
0
2
13
16
10
7
12
6
0
0
0
1
0
0
0
5
22
24
29
27
32
26
17
4
5
7
3
3
3
3
2
2
2
1
1
1
1
1
0
0
3
4
2
35
72
67
67
67
65
69
62
60
75
62
35
65
69
65
73
58
71
65
12
36
52
52
73
80
42
59
53
52
39
35
45
47
49
48
46
46
48
48
46
45
42
38
26
20
11
14
37
46
46
46
58
66
67
55
27
21
11
9
4
3
2
2
1
1
1
1
1
0
0
0
0
0
0
0
0
0
16
16
28
30
16
19
15
17
50
64
44
40
37
40
41
20
10
1
0
0
0
0
3
36
29
10
0
0
0
0
0
0
0
1
13
17
10
7
7
3
0
0
0
3
0
0
1
4
23
28
30
27
27
23
17
5
5
7
3
3
3
3
2
2
2
2
1
1
1
1
0
1
4
5
1
38
79
70
64
66
66
70
57
59
72
63
31
63
69
68
77
63
74
70
11
39
53
52
73
78
32
55
60
50
42
36
46
49
47
46
47
47
47
48
49
50
43
36
25
20
10
15
39
47
48
47
47
47
42
27
5
5
4
3
3
3
2
2
1
1
1
1
1
0
0
0
0
0
0
0
0
0
17
17
32
34
18
22
14
16
48
65
43
39
39
41
46
25
9
1
0
0
0
0
2
38
39
15
0
0
0
0
0
0
0
1
13
16
11
9
4
2
0
0
0
7
1
0
0
6
28
30
35
31
24
23
15
4
7
9
4
3
3
3
2
2
2
2
2
2
2
1
1
0
5
5
1
37
69
74
55
59
86
85
56
71
86
65
34
64
73
71
89
75
83
81
9
36
55
55
74
81
42
67
59
51
47
39
49
51
45
45
44
45
45
46
50
54
44
34
23
17
10
16
40
47
48
48
49
50
44
26
7
8
8
9
7
6
5
4
4
3
2
2
1
1
0
0
0
0
0
0
0
0
19
17
31
32
24
26
13
16
46
68
46
42
39
36
58
34
15
2
0
0
0
0
1
30
36
5
0
0
0
0
0
0
0
1
15
18
12
9
3
2
0
0
5
4
2
3
0
9
30
32
38
31
25
24
16
4
7
9
4
3
3
3
3
3
2
2
2
2
2
1
1
0
4
6
1
38
72
74
64
65
87
86
57
71
86
61
26
53
78
75
93
76
87
85
11
36
55
57
77
86
40
68
59
52
46
40
49
51
47
46
43
43
44
45
49
52
44
33
21
16
10
17
40
47
50
51
55
56
51
34
13
11
9
9
9
9
9
7
5
4
2
2
2
1
0
0
0
0
1
1
0
0
22
18
23
25
24
24
11
12
25
64
44
42
45
41
63
36
11
3
0
0
0
0
1
22
39
6
0
0
0
0
0
0
0
1
13
16
13
8
3
1
0
0
13
16
14
11
10
14
27
38
39
34
37
35
20
3
9
10
3
3
3
3
2
2
1
2
2
2
2
2
0
0
2
6
1
27
72
76
66
57
57
59
58
62
71
60
16
17
25
43
74
78
94
87
12
38
55
61
76
90
47
80
59
60
45
40
49
52
45
45
46
42
44
44
46
51
42
31
19
15
10
18
39
45
47
49
54
58
50
33
18
19
20
19
20
21
24
23
11
7
3
1
0
0
0
0
0
0
0
0
1
1
24
20
19
22
26
28
13
3
2
69
44
43
41
35
61
31
6
3
0
0
0
0
1
12
42
5
0
0
0
0
0
0
0
1
8
13
15
10
3
1
0
0
1
0
8
18
26
21
29
40
38
35
39
37
20
3
7
8
3
3
3
3
2
2
1
1
2
2
2
2
1
0
2
5
1
27
67
69
59
54
58
57
57
61
69
59
17
13
10
14
47
63
93
91
12
37
55
60
76
87
47
79
62
66
50
40
50
51
45
44
45
41
45
44
44
49
40
29
18
14
10
18
39
45
45
46
49
53
44
27
15
15
17
16
16
17
19
18
10
8
4
2
0
0
0
0
0
0
0
0
1
1
24
19
22
28
24
27
16
10
2
72
44
43
40
42
59
28
5
3
0
0
0
0
0
7
45
9
0
0
0
0
0
0
0
1
10
15
17
9
3
1
0
0
0
0
36
36
29
27
26
28
34
39
31
41
22
2
8
5
2
3
2
2
2
2
1
1
1
1
1
2
1
0
4
7
1
44
52
60
56
55
56
55
48
53
61
55
16
12
7
6
4
2
7
13
12
41
54
57
78
87
50
78
70
74
53
40
50
51
45
44
44
40
44
45
44
48
33
28
17
12
10
20
39
44
44
43
43
43
33
16
5
5
5
5
5
4
4
4
3
2
1
2
1
0
3
0
0
0
0
0
1
1
26
21
18
43
29
29
26
28
1
73
46
41
41
41
52
24
6
5
0
0
0
0
0
2
47
14
0
0
0
0
0
0
0
0
12
18
9
13
3
1
0
0
0
0
51
42
29
33
32
34
37
34
29
46
21
2
7
4
2
3
2
2
2
2
1
1
1
1
1
2
1
0
8
11
2
47
56
58
45
48
53
68
47
50
57
51
16
12
6
6
4
1
4
6
12
43
56
56
80
90
48
78
71
73
55
42
51
51
45
45
44
41
44
44
45
49
31
26
16
11
11
21
39
41
42
41
41
42
30
14
5
5
5
5
4
4
3
3
3
2
1
1
1
1
7
1
0
0
0
0
1
1
26
22
17
46
32
33
29
29
2
69
45
44
41
37
54
26
6
5
1
0
0
0
0
1
52
15
0
0
0
0
0
0
0
0
13
21
19
19
3
1
0
0
0
2
43
49
32
33
37
38
35
31
48
52
22
1
9
4
2
3
2
2
1
1
1
1
1
1
1
1
0
0
4
9
4
87
77
31
28
30
52
77
103
85
73
47
17
15
10
9
5
2
5
6
15
48
59
61
78
86
37
66
79
78
59
47
54
52
44
45
45
41
43
42
45
50
29
25
15
10
12
23
39
39
41
40
40
41
27
13
5
5
5
4
4
4
3
3
3
3
2
1
2
1
1
1
0
0
0
0
1
1
27
24
20
51
29
29
40
30
1
55
46
47
46
39
50
27
3
3
6
6
0
0
0
0
51
23
0
0
0
0
0
0
0
0
13
22
23
21
3
1
0
0
0
0
54
52
31
33
72
72
49
46
43
52
18
1
8
3
2
3
2
1
1
1
1
1
2
1
1
1
0
0
3
9
4
88
79
35
26
27
54
72
99
84
70
45
16
14
10
10
6
3
5
6
17
49
61
63
77
85
22
34
65
79
60
48
54
52
45
45
45
40
43
43
45
50
29
24
14
10
13
24
38
38
40
40
40
41
26
12
5
5
4
4
4
4
3
3
3
3
2
1
2
1
1
1
1
0
0
0
2
1
26
26
21
51
32
32
49
38
1
48
51
45
49
48
50
29
2
2
19
10
0
0
0
0
57
26
0
0
0
0
0
0
0
0
11
20
26
18
3
1
0
0
0
0
30
57
35
38
48
46
61
59
47
53
16
0
10
2
1
1
1
2
1
1
1
0
1
0
1
2
0
0
2
12
10
80
93
47
38
45
61
66
99
93
69
49
17
15
9
10
6
4
4
7
16
49
63
64
72
87
19
18
15
20
37
48
54
51
45
45
45
40
43
43
45
50
28
23
13
9
15
26
38
37
40
40
40
40
22
10
5
5
4
4
4
3
3
3
3
3
3
2
1
1
2
2
1
1
0
0
2
2
24
28
19
52
33
35
58
44
2
31
49
40
48
52
49
60
41
4
37
25
0
0
0
0
40
28
1
0
0
0
0
0
0
0
7
17
24
13
3
1
0
0
3
2
32
55
37
33
43
43
58
59
42
50
15
0
14
2
1
1
1
1
1
2
1
0
0
0
1
1
0
1
1
17
22
77
87
47
37
49
69
70
124
105
68
45
18
16
10
11
7
4
5
6
15
46
61
62
67
81
21
19
15
22
38
49
55
52
45
45
45
40
43
43
45
50
27
23
12
8
16
26
37
37
40
40
40
40
21
9
5
5
5
4
4
4
3
3
3
3
2
1
2
2
2
2
1
1
0
0
2
2
24
30
19
47
33
37
52
37
2
22
57
40
40
46
52
70
50
5
29
41
0
0
0
0
42
36
0
0
0
0
0
0
0
0
6
15
25
9
3
2
0
12
10
19
45
47
37
36
48
47
61
51
51
65
8
1
17
1
1
1
1
1
3
2
1
0
0
0
0
0
0
1
1
14
32
67
69
75
73
62
83
81
111
102
85
56
18
16
10
9
7
4
6
7
17
46
63
64
65
72
20
17
19
24
37
50
56
53
42
39
37
37
44
44
45
51
26
22
11
7
18
28
36
36
38
38
38
38
18
8
5
5
4
4
4
3
3
3
3
2
1
2
3
3
3
3
2
2
1
0
3
3
25
35
21
23
33
37
60
98
14
7
68
37
37
42
52
87
60
9
5
22
19
0
0
0
46
49
0
0
0
0
0
0
0
0
7
16
27
9
3
2
1
15
20
34
48
54
48
46
57
66
74
75
66
73
5
2
17
1
1
2
0
0
2
2
1
0
0
0
0
0
0
1
1
13
31
66
64
67
76
75
63
64
105
113
98
63
18
16
10
10
7
4
5
6
24
73
78
62
61
67
20
18
20
26
35
50
57
54
42
38
32
34
44
45
42
48
26
22
10
7
19
30
36
35
39
39
39
38
18
8
5
6
12
16
17
19
17
20
27
29
11
4
2
3
4
4
3
2
1
1
3
3
23
35
22
15
34
32
60
110
24
3
83
41
35
38
52
85
64
14
23
25
19
0
0
0
38
47
0
0
0
0
0
0
0
0
7
15
22
20
19
10
4
45
29
46
47
53
27
15
36
29
44
61
77
73
4
0
20
1
1
1
0
0
1
2
1
0
1
1
1
1
0
1
1
12
24
63
69
72
76
77
70
78
128
123
125
78
19
17
11
10
6
4
5
5
27
88
56
59
54
60
21
20
20
26
37
51
54
50
41
38
34
34
45
45
33
34
25
22
9
7
21
32
36
35
42
51
56
57
39
34
41
49
70
85
98
97
99
96
90
83
49
35
3
3
3
3
4
4
8
11
4
3
19
31
26
19
36
33
52
107
44
2
87
42
32
33
39
73
72
18
13
15
18
0
0
0
43
54
0
0
0
0
0
0
0
0
4
14
22
23
31
16
0
27
33
49
52
53
16
9
32
26
29
41
80
73
3
0
25
1
1
1
0
0
1
2
1
1
2
2
2
2
0
1
1
10
23
61
76
76
79
80
75
67
92
105
134
95
19
17
10
9
6
4
7
8
28
76
67
64
62
62
21
20
21
24
38
50
52
48
41
38
33
33
44
45
29
26
26
22
10
8
23
32
36
35
43
51
56
56
34
28
37
42
59
76
112
127
142
134
119
105
57
40
4
4
3
3
3
3
6
7
3
4
20
32
30
24
39
31
45
99
48
2
94
44
32
33
39
72
79
26
12
14
20
0
0
0
40
52
0
0
0
0
0
0
0
0
3
12
21
29
41
25
3
15
30
57
58
55
36
39
51
57
64
59
80
78
3
0
23
1
2
2
2
2
2
2
2
2
1
1
1
2
0
1
1
8
28
68
76
82
81
82
82
79
76
94
108
57
21
19
9
6
5
5
12
13
36
87
94
80
83
82
18
18
18
25
45
56
49
45
39
36
32
32
42
42
30
25
36
23
9
9
25
34
36
34
43
51
58
56
34
28
30
30
31
33
35
35
35
36
37
34
29
15
8
5
4
14
75
47
4
13
4
4
22
36
34
25
55
32
35
88
37
2
77
46
32
34
38
76
95
39
0
21
18
2
0
0
31
47
0
0
0
0
0
0
0
0
1
7
23
31
39
28
10
23
27
55
56
56
43
47
65
65
76
75
79
76
2
0
22
2
2
2
2
2
2
2
3
2
1
1
1
2
0
1
1
7
36
77
68
71
91
95
87
82
77
83
107
61
21
21
10
6
4
4
13
14
42
86
97
88
95
98
18
18
19
29
64
65
48
44
37
34
31
31
41
41
29
24
38
23
9
9
26
35
38
36
42
51
59
57
35
31
33
33
36
37
40
39
42
45
41
40
24
12
10
8
7
27
150
98
5
7
4
4
21
37
39
27
62
35
34
92
50
2
60
38
31
33
33
67
95
39
0
9
13
4
0
0
23
39
1
0
0
0
0
0
0
0
1
6
24
27
38
42
19
30
35
46
61
64
44
50
65
74
75
82
78
81
2
0
21
3
3
3
2
2
2
2
3
3
3
3
3
3
2
1
1
10
38
93
110
98
96
94
86
78
78
90
102
75
23
23
10
6
5
4
12
12
48
102
123
111
102
113
19
20
19
35
78
65
50
47
100
123
111
111
117
119
36
23
41
23
9
11
28
35
35
34
41
51
59
58
37
33
35
32
37
42
51
53
50
49
38
32
3
3
13
18
8
45
156
116
8
34
6
4
22
41
40
28
83
46
43
102
68
2
53
44
27
28
35
63
86
39
1
3
3
0
0
0
15
37
1
0
0
0
0
0
0
0
1
7
22
24
36
41
21
32
36
45
69
63
41
47
63
69
78
86
87
83
2
0
19
3
2
2
2
2
2
2
2
2
2
2
2
2
1
1
1
10
50
104
114
104
102
97
82
77
80
94
111
79
26
26
12
7
5
5
12
12
45
104
129
135
112
120
19
20
19
31
61
67
52
49
161
177
153
153
158
165
80
23
37
22
10
12
28
35
34
33
42
51
59
58
38
35
39
33
31
35
43
46
46
46
39
32
3
2
15
22
10
32
104
88
11
46
7
4
25
42
37
31
87
46
38
100
79
2
60
57
28
28
35
63
89
44
1
6
2
2
0
0
19
46
2
0
0
0
0
0
0
0
1
6
20
26
32
34
34
39
36
42
56
56
46
51
63
70
76
85
83
76
2
0
15
2
2
2
2
2
1
2
1
1
1
1
1
1
1
1
1
7
34
69
100
103
93
95
90
83
84
98
107
74
28
29
11
6
6
5
11
14
49
112
153
163
122
124
20
19
22
31
58
69
54
71
161
155
132
131
144
149
98
22
30
21
10
13
29
34
34
34
47
58
61
59
40
38
39
37
28
30
36
40
44
39
37
39
5
5
13
24
25
22
25
31
13
48
10
4
29
50
32
31
82
45
40
95
83
2
45
56
29
27
30
57
103
58
0
0
1
0
0
0
13
50
2
0
0
0
0
0
0
0
1
5
19
23
28
30
29
33
40
47
53
55
47
53
60
68
73
82
85
76
2
0
12
1
2
1
1
1
1
1
1
1
1
1
1
1
1
1
1
7
38
63
87
96
86
89
90
84
82
95
108
78
24
24
9
5
4
4
12
15
51
111
151
148
127
127
21
22
23
32
62
74
55
86
172
164
150
145
160
164
95
21
30
21
11
13
30
34
35
34
57
66
66
66
51
52
49
45
30
34
48
57
62
55
38
38
11
11
20
30
29
28
29
32
17
38
12
4
28
48
31
32
73
44
39
95
80
2
42
55
27
26
31
56
100
57
0
0
0
0
0
0
9
50
3
0
0
0
0
0
0
0
0
5
18
21
30
30
32
34
51
59
53
52
46
54
56
60
67
74
98
81
2
0
8
2
2
2
1
1
1
1
0
1
1
1
1
1
1
1
0
6
53
96
91
89
92
88
93
86
88
96
111
80
16
15
7
4
3
4
12
17
52
123
152
145
124
123
21
24
25
33
59
73
64
57
61
68
116
131
121
100
39
23
30
20
11
15
31
35
35
34
52
70
76
72
58
54
41
22
19
20
21
23
23
17
16
14
14
15
20
27
16
25
29
34
29
33
14
4
20
37
31
30
54
33
34
94
75
2
53
68
22
23
25
48
96
57
0
0
0
0
0
0
2
47
12
0
0
0
0
0
0
0
0
3
18
21
31
32
32
37
45
51
48
53
48
58
57
57
68
75
95
76
2
0
5
2
2
1
1
1
1
0
0
1
1
1
1
1
1
0
0
6
55
104
96
90
86
85
90
86
86
94
106
77
15
14
7
4
3
3
12
17
48
116
149
147
118
118
22
24
25
33
60
76
73
66
63
54
44
45
44
48
30
23
26
19
11
16
32
35
35
34
47
74
95
90
76
74
55
19
7
7
9
10
8
7
8
8
10
11
17
28
3
12
35
36
31
35
14
3
17
36
30
29
40
32
32
91
74
3
62
79
21
22
22
42
90
58
0
0
0
0
0
0
0
51
17
0
0
0
0
0
0
0
0
3
17
18
23
30
30
33
38
39
41
40
48
52
59
64
72
82
91
61
0
0
2
1
1
1
1
1
1
1
1
1
1
1
1
1
1
0
0
7
59
104
87
83
72
68
79
78
86
90
90
69
18
18
8
4
3
3
13
15
43
100
135
140
102
101
23
24
26
33
60
151
188
182
221
223
224
221
153
161
92
24
19
17
11
17
31
34
35
35
70
113
128
125
124
125
67
8
6
5
11
16
35
27
3
3
4
4
3
12
15
28
35
39
35
38
15
4
11
34
29
27
24
29
23
74
71
3
52
74
20
18
29
35
82
65
0
0
0
0
0
0
0
50
34
0
0
0
0
0
0
0
0
1
13
15
21
27
34
34
41
40
37
38
48
55
53
61
70
81
83
56
0
0
1
1
1
0
1
1
1
1
1
1
1
1
1
1
1
0
0
6
54
99
83
88
70
67
80
77
83
86
80
61
17
17
6
3
3
3
13
15
42
97
131
133
94
98
21
23
25
32
54
109
139
142
170
173
173
172
144
148
121
22
17
15
12
18
34
36
36
37
81
141
175
177
177
177
103
18
7
5
10
14
33
25
2
1
3
4
2
5
17
28
29
36
29
28
11
4
8
24
27
26
23
28
22
60
74
4
44
65
22
20
31
38
77
65
0
0
0
0
0
0
0
42
39
0
0
0
0
0
0
0
0
0
8
12
23
28
31
32
37
37
38
34
40
48
51
59
76
78
85
44
0
1
0
1
0
1
0
0
0
0
1
1
1
1
1
1
1
0
1
6
44
89
79
83
63
64
69
67
76
79
72
48
16
15
5
3
2
2
10
12
42
102
127
131
87
92
20
21
24
31
43
47
97
104
34
33
38
54
29
32
70
19
15
13
17
23
37
36
38
38
46
106
151
112
45
61
95
115
121
110
82
49
70
40
35
31
25
22
25
22
17
13
9
8
11
9
5
5
8
14
26
20
18
19
16
38
67
6
22
35
19
17
26
43
75
72
0
0
0
0
0
0
0
27
48
0
0
0
0
0
0
0
0
0
12
14
21
24
25
28
37
35
35
34
40
46
52
56
72
78
88
47
0
1
0
0
0
0
0
0
0
0
1
1
0
1
1
1
1
0
0
6
43
84
76
82
65
67
67
72
81
84
70
42
15
15
5
3
2
2
9
10
39
100
124
126
83
84
33
22
22
30
40
43
109
105
36
37
46
57
42
34
91
38
28
28
36
45
62
62
65
66
71
79
84
71
52
54
60
80
58
68
73
76
85
86
88
89
81
76
77
70
60
49
38
36
32
32
31
32
33
40
47
33
32
22
19
29
58
8
15
30
27
15
25
42
69
70
1
0
0
0
0
0
0
19
52
0
0
0
0
0
0
0
0
0
16
17
20
23
21
26
39
34
31
32
34
39
48
53
72
79
73
37
0
2
0
0
0
0
0
0
0
0
0
0
0
0
0
0
1
0
0
5
36
67
56
59
60
61
71
72
71
74
65
26
12
18
37
25
2
6
14
25
89
96
80
73
76
78
83
92
104
107
103
100
160
170
140
146
154
154
162
120
171
167
171
180
211
217
224
225
224
223
229
232
218
176
145
168
198
199
198
197
183
174
176
172
162
162
155
145
146
153
143
126
136
123
116
109
115
118
101
90
86
95
98
71
59
53
93
77
70
49
15
8
16
27
56
61
0
0
0
0
0
0
0
18
55
0
0
0
0
0
0
0
0
0
15
16
18
19
21
26
33
31
27
32
34
43
52
52
67
69
67
30
0
3
0
0
0
0
0
0
0
0
0
0
0
0
0
0
0
0
0
7
38
69
49
50
52
58
67
59
67
69
66
44
13
14
35
32
13
15
29
53
82
78
84
72
97
99
122
133
138
133
125
121
172
177
143
142
146
145
151
120
159
158
167
169
188
187
182
185
189
188
189
190
177
131
101
132
165
167
168
167
161
161
155
147
146
139
135
131
120
120
107
100
114
104
85
79
91
105
119
102
74
79
81
65
73
70
134
127
117
61
23
14
12
19
63
71
0
0
0
0
0
0
0
15
60
1
0
0
0
0
0
0
0
0
14
14
18
17
21
23
23
26
27
30
58
58
55
46
38
44
74
38
0
5
0
0
0
0
0
0
0
0
0
0
0
0
0
0
0
0
0
11
40
65
45
42
26
26
34
30
41
55
54
47
46
49
57
89
74
53
72
79
73
78
86
90
102
107
109
111
118
123
122
119
175
183
145
147
154
158
175
166
182
171
167
164
181
184
173
163
153
169
179
174
167
190
198
190
193
189
173
173
172
163
129
126
125
120
114
104
107
115
104
117
119
101
83
86
81
87
74
73
75
80
71
79
57
57
72
85
92
76
91
83
78
67
31
30
18
14
18
16
13
11
11
11
43
7
0
0
0
0
0
0
0
0
11
11
19
22
24
23
26
28
29
31
54
51
54
46
32
40
73
36
0
5
0
0
0
0
0
0
0
0
0
0
0
0
0
0
0
0
3
10
35
42
31
32
23
14
15
22
30
40
51
53
55
61
75
94
117
128
139
134
119
129
138
141
149
148
154
158
168
174
143
143
196
202
188
195
202
200
204
202
193
189
211
213
205
208
199
198
186
196
208
209
215
224
220
215
219
216
212
210
214
198
177
172
163
143
132
131
124
135
129
137
120
116
117
114
99
96
66
61
55
65
53
71
54
59
66
67
72
62
66
78
71
76
70
63
51
44
49
42
35
30
24
24
38
10
0
0
0
0
0
0
0
0
7
9
13
15
21
22
29
22
29
31
39
39
40
36
37
39
42
18
28
49
60
61
27
17
25
25
30
40
57
60
54
57
47
55
60
69
71
64
91
88
108
115
127
128
144
137
143
147
152
153
158
154
160
158
166
166
165
165
178
161
165
176
180
199
214
219
238
245
213
214
246
247
248
248
247
247
238
236
229
230
230
217
203
202
199
197
183
180
170
169
166
168
155
138
139
138
131
130
125
122
121
107
112
113
133
121
123
123
120
115
123
124
130
124
110
106
91
94
90
92
67
72
100
91
66
57
38
39
63
55
40
49
51
46
48
44
43
38
47
33
21
18
22
8
0
1
8
4
2
2
1
0
7
9
13
16
22
18
29
21
25
29
42
41
42
40
40
43
32
2
17
35
45
55
43
52
41
38
41
52
74
74
66
87
90
93
85
84
89
73
93
95
103
103
124
127
139
133
142
148
133
145
159
156
163
165
167
169
169
169
177
169
201
218
228
239
251
251
252
252
236
230
235
234
234
231
230
235
235
239
241
228
208
186
180
179
184
181
161
151
151
146
143
141
134
124
130
116
118
122
120
124
118
112
115
113
128
119
130
132
119
112
113
111
113
110
98
91
95
89
72
76
70
74
69
49
42
36
30
29
48
41
36
40
38
35
32
26
21
15
14
15
13
11
15
6
0
1
2
0
0
0
0
0
8
11
12
14
19
20
28
26
23
32
40
28
31
32
17
16
23
38
69
98
46
49
60
44
72
77
84
92
70
73
73
71
79
86
103
113
128
134
121
136
130
131
129
133
135
140
145
141
143
144
144
145
146
154
146
144
147
139
195
201
205
204
200
201
208
205
195
196
192
193
196
200
206
205
199
202
190
163
134
133
140
139
142
141
135
125
142
135
127
127
113
97
101
101
121
114
109
99
80
77
89
80
83
76
76
95
83
89
89
90
65
60
66
66
72
73
55
48
44
39
30
27
25
23
35
48
43
39
40
38
34
30
28
30
27
27
26
23
16
16
10
10
5
4
1
5
8
2
0
0
0
0
6
9
13
14
12
12
16
17
14
20
7
3
7
7
6
15
11
32
28
49
41
44
50
44
39
44
56
61
59
63
68
69
69
74
69
80
99
98
98
102
106
113
118
121
107
105
120
121
127
123
127
129
128
128
127
124
119
115
129
132
141
133
131
134
145
142
138
135
127
128
138
140
138
137
135
135
134
114
110
115
116
119
120
121
122
122
122
114
104
101
83
77
80
84
101
93
74
68
72
77
82
78
74
75
71
88
83
72
65
63
56
54
46
54
52
50
55
54
50
49
47
46
41
38
34
32
30
29
26
26
24
22
22
21
21
21
20
19
14
11
10
9
6
7
5
10
9
4
0
0
0
0
20
15
18
20
11
4
3
3
16
11
8
8
10
7
9
13
14
16
22
30
40
37
38
39
30
31
29
35
33
34
42
48
59
55
48
47
58
47
48
56
58
64
75
82
77
77
88
88
94
98
117
112
101
94
104
103
100
98
114
116
112
114
105
107
101
107
111
112
104
99
95
96
102
100
97
102
97
91
90
98
85
92
98
97
84
68
69
69
84
79
46
54
69
71
61
43
51
57
70
76
91
95
76
69
64
62
60
60
57
55
38
31
26
22
18
20
22
23
22
21
18
18
13
13
21
43
66
80
83
66
23
15
12
10
10
10
7
6
5
5
5
5
6
5
9
13
7
3
2
3
0
1
21
17
18
20
11
4
1
1
12
12
8
7
12
13
10
14
16
20
61
64
38
33
28
27
20
24
28
27
30
30
34
37
36
48
46
39
43
36
41
49
49
46
60
68
57
52
58
62
83
89
95
87
78
78
91
94
94
85
99
105
100
97
94
100
82
93
95
98
96
90
78
70
79
79
77
80
75
75
82
87
79
80
72
65
54
46
50
37
53
54
33
37
50
48
54
54
53
57
56
51
61
67
68
71
52
48
46
51
51
46
26
22
29
28
28
28
25
24
22
19
21
22
14
11
16
37
62
74
77
59
17
10
6
5
6
7
7
7
6
5
14
16
9
9
10
8
2
0
0
0
0
0
9
5
2
3
7
3
5
4
3
3
4
4
6
7
7
4
13
8
7
8
9
9
10
10
17
14
21
22
20
21
30
34
53
81
97
96
52
30
36
35
31
32
43
42
43
45
53
58
56
48
51
48
57
60
68
67
73
75
69
68
65
66
64
61
58
60
58
61
44
50
61
60
42
38
31
35
38
37
42
38
44
41
34
34
30
20
37
44
32
29
38
38
40
30
24
24
23
26
37
18
17
19
23
29
37
36
34
31
26
26
24
22
21
20
22
23
23
22
21
20
19
18
21
19
16
13
11
11
7
6
6
5
4
4
2
2
3
3
3
3
2
2
4
5
3
2
1
1
1
0
0
0
0
1
1
1
7
4
5
4
4
3
3
3
3
4
4
4
8
8
8
7
9
7
10
12
13
13
19
18
19
23
25
26
26
21
26
22
15
15
18
24
32
38
42
41
37
34
49
56
62
58
53
53
49
46
40
39
47
46
48
48
53
61
56
56
50
53
47
46
37
47
57
56
41
33
31
33
33
30
34
30
40
40
30
28
25
21
28
33
36
39
49
51
39
28
21
22
27
33
42
26
21
24
29
35
42
40
33
28
28
24
20
21
32
36
27
27
24
22
19
18
16
15
12
11
11
11
7
6
5
4
4
4
4
3
1
1
3
2
3
3
3
2
2
2
1
1
0
0
0
0
0
0
1
2
2
2
2
3
3
3
5
6
6
6
7
6
7
6
6
7
7
14
21
32
51
51
42
38
24
19
11
13
10
12
11
13
19
22
23
25
25
28
26
26
24
26
29
35
37
36
33
38
31
35
38
39
29
46
28
28
33
28
34
37
36
33
38
38
43
41
34
34
42
50
40
36
35
33
32
27
25
28
22
21
25
25
33
38
25
21
23
27
25
26
33
34
36
37
36
41
37
37
29
28
29
30
31
27
25
25
23
23
20
19
15
15
11
11
11
8
7
8
9
8
6
5
4
4
4
4
4
4
3
3
3
3
2
1
2
2
1
1
1
0
1
1
0
0
0
0
0
0
0
0
0
0
0
0
0
0
0
0
1
1
1
2
2
2
2
2
3
3
5
7
7
7
7
7
7
7
7
5
3
4
8
8
9
14
16
16
21
23
26
23
24
27
23
24
25
26
26
22
18
25
21
27
27
29
29
42
19
21
22
21
26
27
31
30
36
35
40
39
32
36
36
38
33
28
26
27
30
25
22
22
24
23
22
22
29
30
20
20
22
23
23
24
24
30
32
32
30
31
30
30
25
23
24
26
23
21
20
18
12
11
10
10
7
7
6
5
5
5
4
5
6
6
5
4
4
3
3
3
3
3
3
4
2
2
2
1
2
2
1
0
0
0
0
0
0
0
0
0
0
0
0
0
0
0
0
0
0
0
0
0
1
2
0
1
1
2
1
1
0
1
2
3
5
5
6
6
6
7
6
7
8
9
11
10
11
11
11
11
13
15
18
18
19
19
13
11
15
15
14
13
15
15
16
15
14
17
18
19
16
20
27
27
20
22
31
32
35
34
25
23
24
23
24
22
20
20
20
19
16
16
16
16
14
11
7
7
9
7
11
14
10
15
22
25
53
55
61
54
48
47
23
14
14
12
10
8
8
7
6
7
10
9
9
6
4
5
6
5
5
4
3
3
40
28
4
4
2
1
1
1
1
1
0
0
0
0
0
0
0
0
0
0
0
0
0
0
0
0
0
0
0
0
0
0
0
0
0
0
0
0
0
0
0
0
0
0
0
1
0
0
0
0
2
4
5
6
7
7
5
6
5
6
7
7
8
7
9
12
13
12
10
10
13
13
16
15
11
11
13
14
14
14
17
17
14
15
21
20
19
19
13
15
21
21
20
21
24
23
23
21
22
21
22
21
18
18
19
17
15
16
16
18
11
8
8
6
5
5
12
8
9
11
10
12
13
15
39
42
50
44
38
37
13
7
5
4
4
4
6
4
3
5
6
6
6
5
2
2
4
4
3
2
3
3
2
2
2
2
1
1
0
0
0
0
0
0
0
0
0
0
0
0
0
0
0
0
0
0
0
0
0
0
0
0
0
0
0
0
0
0
0
0
0
0
0
0
0
0
0
0
1
1
1
2
2
2
3
2
2
2
1
1
1
1
1
2
3
2
4
6
8
7
6
4
4
4
8
8
9
8
10
13
13
14
18
19
15
17
20
18
19
21
21
17
14
15
14
13
17
17
15
15
19
17
17
19
20
22
24
20
12
10
6
5
11
15
7
5
4
3
5
4
6
6
7
5
2
1
0
0
0
0
0
0
2
4
4
4
4
4
3
4
4
4
3
2
2
1
1
1
2
2
1
1
1
1
1
2
1
1
1
1
0
0
0
0
0
0
0
0
0
0
0
0
0
0
0
0
0
0
0
0
0
0
0
0
0
0
0
0
0
0
0
0
0
0
0
0
0
0
0
1
1
1
1
1
1
1
1
1
2
2
1
0
1
1
0
1
3
3
1
2
3
3
4
5
6
5
3
2
3
2
5
7
4
5
8
10
9
10
11
8
10
9
9
7
5
7
6
7
10
9
8
7
10
9
12
14
13
15
15
12
6
7
3
2
2
5
7
8
6
6
3
3
4
4
5
3
1
1
0
0
0
0
0
0
3
6
6
4
2
3
3
3
3
3
2
1
0
0
0
0
0
0
0
0
0
0
0
1
1
0
1
1
0
0
0
0
0
0
0
0
0
0
0
0
0
0
0
0
0
0
0
0
0
0
0
0
0
0
0
0
0
0
0
0
0
0
0
0
0
0
0
0
0
0
0
0
1
1
2
2
2
4
1
1
0
1
1
2
2
2
2
3
3
4
6
6
5
5
10
11
12
13
13
13
11
9
10
13
11
10
11
11
11
12
15
14
15
16
17
16
15
14
14
13
12
11
11
11
12
13
10
9
6
5
4
4
5
7
4
4
7
7
7
10
11
10
7
7
5
7
7
8
8
7
5
5
5
5
4
4
3
3
2
2
2
2
3
2
1
1
1
0
1
2
2
2
1
1
1
1
0
0
0
0
0
0
0
0
0
0
0
0
0
0
0
0
0
0
0
0
0
0
0
0
0
0
0
0
0
0
0
0
0
0
0
0
0
0
0
0
0
0
0
0
0
0
0
0
0
0
0
0
1
3
1
1
0
0
1
2
1
1
1
0
1
1
1
2
2
3
5
5
5
5
6
7
5
4
6
9
6
5
4
4
8
7
6
6
6
9
9
8
7
7
10
9
6
4
5
8
8
8
7
7
7
5
4
3
3
8
2
2
4
3
4
6
7
6
5
5
4
5
6
5
7
6
4
4
3
2
3
1
2
1
1
1
1
1
0
0
0
0
0
0
0
0
1
1
0
0
0
1
0
0
0
0
0
0
0
0
0
0
0
0
0
0
0
0
0
0
0
0
0
0
0
0
0
0
0
0
0
0
0
0
0
0
0
0
0
0
0
0
0
0
0
0
0
0
0
0
0
0
0
0
0
0
0
0
0
0
0
0
0
0
0
0
0
0
0
0
1
0
0
0
1
2
0
0
1
1
1
0
0
0
0
0
0
0
0
0
0
0
0
0
2
1
0
0
0
0
1
0
0
0
1
3
0
0
0
0
3
1
0
0
0
3
1
0
0
0
2
4
0
0
0
0
4
1
3
2
0
0
2
0
0
0
1
2
0
0
0
0
0
0
0
0
0
0
0
0
0
0
0
0
0
0
0
0
0
0
0
0
0
0
0
0
0
0
0
0
0
0
0
0
0
0
0
0
0
0
0
0
0
0
0
0
0
0
0
0
0
0
0
0
0
0
0
0
0
0
0
0
0
0
1
3
4
0
0
0
0
0
0
0
0
0
0
0
0
0
0
0
0
0
0
0
0
0
0
1
1
1
0
0
1
1
0
0
0
0
0
0
0
0
1
2
2
0
0
0
1
1
0
0
0
0
3
1
0
0
0
1
1
0
0
0
1
5
0
0
0
0
3
2
0
0
0
0
3
0
3
2
0
0
1
0
0
0
1
3
0
0
0
0
0
0
0
0
0
0
0
0
0
0
0
0
0
0
0
0
0
0
0
0
0
0
0
0
0
0
0
0
0
0
0
0
0
0
0
0
0
0
0
0
0
0
0
0
0
0
0
0
0
0
0
0
0
0
0
0
0
0
0
0
0
0
0
0
0
0
0
0
0
3
0
0
0
0
0
0
0
0
0
0
0
0
0
0
0
0
0
0
0
0
1
1
0
0
0
0
0
0
0
0
1
1
0
0
0
0
2
0
0
0
0
0
1
0
0
0
0
0
1
0
0
0
0
1
2
0
0
0
0
1
1
0
0
0
0
2
0
0
0
0
0
0
0
0
0
0
0
0
0
0
0
0
0
0
0
0
0
0
0
0
0
0
0
0
0
0
0
0
0
0
0
0
0
0
0
0
0
0
0
0
0
0
0
0
0
0
0
0
0
0
0
0
0
0
